# Blender v2.79 (sub 0) OBJ File: ''
# www.blender.org
mtllib technic_sphere_quarter.mtl
o Sphere.004
v -0.353553 -0.146447 -0.500000
v -0.277785 -0.084265 -0.500000
v -0.191342 -0.038060 -0.500000
v -0.097545 -0.009607 -0.500000
v -0.500000 -0.500000 -0.500000
v -0.490393 -0.402455 -0.500000
v -0.461940 -0.308658 -0.500000
v -0.415735 -0.222215 -0.500000
v 0.490393 -0.402455 -0.500000
v 0.500000 -0.500000 -0.500000
v 0.415735 -0.222215 -0.500000
v 0.461940 -0.308658 -0.500000
v 0.277785 -0.084265 -0.500000
v 0.353554 -0.146447 -0.500000
v 0.097545 -0.009607 -0.500000
v 0.191342 -0.038060 -0.500000
v 0.480970 -0.402455 -0.404329
v 0.490393 -0.500000 -0.402455
v 0.407747 -0.222215 -0.418894
v 0.453064 -0.308658 -0.409880
v 0.272448 -0.084265 -0.445807
v 0.346760 -0.146447 -0.431025
v 0.095671 -0.009607 -0.480970
v 0.187665 -0.038060 -0.462671
v 0.453064 -0.402455 -0.312335
v 0.461940 -0.500000 -0.308658
v 0.384089 -0.222215 -0.340905
v 0.426777 -0.308658 -0.323223
v 0.256640 -0.084265 -0.393696
v 0.326641 -0.146447 -0.364701
v 0.090120 -0.009607 -0.462671
v 0.176777 -0.038060 -0.426777
v 0.407747 -0.402455 -0.227552
v 0.415735 -0.500000 -0.222215
v 0.345671 -0.222215 -0.269030
v 0.384089 -0.308658 -0.243360
v 0.230970 -0.084265 -0.345671
v 0.293969 -0.146447 -0.303576
v 0.081106 -0.009607 -0.445807
v 0.159095 -0.038060 -0.393696
v 0.346760 -0.402455 -0.153240
v 0.353553 -0.500000 -0.146447
v 0.293969 -0.222215 -0.206031
v 0.326641 -0.308658 -0.173359
v 0.196424 -0.084265 -0.303576
v 0.250000 -0.146447 -0.250000
v 0.068975 -0.009607 -0.431025
v 0.135299 -0.038060 -0.364701
v 0.272448 -0.402455 -0.092254
v 0.277785 -0.500000 -0.084265
v 0.230970 -0.222215 -0.154329
v 0.256640 -0.308658 -0.115911
v 0.154329 -0.084265 -0.269030
v 0.196424 -0.146447 -0.206031
v 0.054193 -0.009607 -0.418894
v 0.106304 -0.038060 -0.340905
v 0.187665 -0.402455 -0.046936
v 0.191342 -0.500000 -0.038060
v 0.159095 -0.222215 -0.115911
v 0.176777 -0.308658 -0.073223
v 0.106304 -0.084265 -0.243360
v 0.135299 -0.146447 -0.173359
v 0.037329 -0.009607 -0.409880
v 0.073223 -0.038060 -0.323223
v 0.095671 -0.402455 -0.019030
v 0.097545 -0.500000 -0.009607
v 0.081106 -0.222215 -0.092254
v 0.090120 -0.308658 -0.046936
v 0.054193 -0.084265 -0.227552
v 0.068975 -0.146447 -0.153240
v 0.019030 -0.009607 -0.404329
v 0.037329 -0.038060 -0.312335
v 0.000000 -0.402455 -0.009608
v 0.000000 -0.500000 0.000000
v 0.000000 -0.222215 -0.084265
v 0.000000 -0.308658 -0.038060
v 0.000000 -0.084265 -0.222215
v 0.000000 -0.146447 -0.146447
v 0.000000 -0.009607 -0.402455
v 0.000000 -0.038060 -0.308658
v -0.095671 -0.402455 -0.019030
v -0.097545 -0.500000 -0.009607
v -0.081106 -0.222215 -0.092254
v -0.090120 -0.308658 -0.046936
v -0.054193 -0.084265 -0.227552
v -0.068975 -0.146447 -0.153240
v -0.019030 -0.009607 -0.404329
v -0.037329 -0.038060 -0.312335
v -0.187665 -0.402455 -0.046937
v -0.191342 -0.500000 -0.038060
v -0.159095 -0.222215 -0.115911
v -0.176777 -0.308658 -0.073223
v -0.106304 -0.084265 -0.243360
v -0.135299 -0.146447 -0.173359
v -0.037329 -0.009607 -0.409880
v -0.073223 -0.038060 -0.323223
v -0.272447 -0.402455 -0.092254
v -0.277785 -0.500000 -0.084265
v -0.230970 -0.222215 -0.154329
v -0.256640 -0.308658 -0.115911
v -0.154329 -0.084265 -0.269030
v -0.196424 -0.146447 -0.206031
v -0.054193 -0.009607 -0.418894
v -0.106304 -0.038060 -0.340905
v -0.346760 -0.402455 -0.153240
v -0.353553 -0.500000 -0.146447
v -0.293969 -0.222215 -0.206031
v -0.326641 -0.308658 -0.173359
v -0.196424 -0.084265 -0.303576
v -0.250000 -0.146447 -0.250000
v -0.068975 -0.009607 -0.431025
v -0.135299 -0.038060 -0.364701
v -0.407746 -0.402455 -0.227553
v -0.415735 -0.500000 -0.222215
v -0.345671 -0.222215 -0.269030
v -0.384089 -0.308658 -0.243360
v -0.230970 -0.084265 -0.345671
v -0.293969 -0.146447 -0.303576
v -0.081106 -0.009607 -0.445807
v -0.159095 -0.038060 -0.393696
v -0.453063 -0.402455 -0.312335
v -0.461939 -0.500000 -0.308658
v -0.384089 -0.222215 -0.340905
v -0.426776 -0.308658 -0.323223
v -0.256640 -0.084265 -0.393696
v -0.326641 -0.146447 -0.364701
v -0.090120 -0.009607 -0.462671
v -0.176776 -0.038060 -0.426777
v -0.480969 -0.402455 -0.404329
v -0.490392 -0.500000 -0.402455
v -0.407746 -0.222215 -0.418894
v -0.453063 -0.308658 -0.409880
v -0.272447 -0.084265 -0.445807
v -0.346760 -0.146447 -0.431025
v -0.095671 -0.009607 -0.480970
v -0.187665 -0.038060 -0.462671
v -0.012914 -0.004804 -0.497431
v -0.013160 -0.004804 -0.499926
v -0.012165 -0.004804 -0.494961
v -0.010948 -0.004804 -0.492685
v -0.009311 -0.004804 -0.490689
v -0.007315 -0.004804 -0.489052
v -0.005039 -0.004804 -0.487835
v -0.002569 -0.004804 -0.487086
v 0.000000 -0.004804 -0.486833
v 0.002569 -0.004804 -0.487086
v 0.005039 -0.004804 -0.487835
v 0.007316 -0.004804 -0.489052
v 0.009311 -0.004804 -0.490689
v 0.010948 -0.004804 -0.492685
v 0.012165 -0.004804 -0.494961
v 0.012915 -0.004804 -0.497431
v 0.013168 -0.004804 -0.500000
v 0.000000 -0.500000 -0.500000
v 0.013156 -0.004804 -0.499882
vt 0.486844 0.500000
vt 0.500000 0.000000
vt 0.513160 0.500000
vt 0.402455 0.495150
vt 0.597545 0.495150
vt 0.308658 0.466421
vt 0.691342 0.466421
vt 0.222215 0.419768
vt 0.777785 0.419768
vt 0.146446 0.356983
vt 0.853553 0.356983
vt 0.084265 0.280480
vt 0.915735 0.280480
vt 0.038060 0.193198
vt 0.961940 0.193198
vt 0.009607 0.098491
vt 0.990393 0.098491
vt 0.000000 0.000000
vt 1.000000 0.000000
vt 0.009608 0.097545
vt 0.000000 0.000000
vt 1.000000 0.000000
vt 0.990393 0.097545
vt 0.597545 0.490393
vt 0.500000 0.500000
vt 0.038061 0.191342
vt 0.961940 0.191342
vt 0.915735 0.277785
vt 0.084265 0.277785
vt 0.853553 0.353553
vt 0.146447 0.353553
vt 0.777785 0.415735
vt 0.222215 0.415735
vt 0.691342 0.461940
vt 0.308658 0.461940
vt 0.402455 0.490393
vt 0.437500 0.500000
vt 0.437500 0.562500
vt 0.375000 0.562500
vt 0.375000 0.500000
vt 0.437500 0.625000
vt 0.437500 0.687500
vt 0.375000 0.687500
vt 0.375000 0.625000
vt 0.437500 0.750000
vt 0.437500 0.812500
vt 0.375000 0.812500
vt 0.375000 0.750000
vt 0.437500 0.875000
vt 0.437500 0.937500
vt 0.375000 0.937500
vt 0.375000 0.875000
vt 0.312500 0.562500
vt 0.312500 0.500000
vt 0.312500 0.687500
vt 0.312500 0.625000
vt 0.312500 0.812500
vt 0.312500 0.750000
vt 0.312500 0.937500
vt 0.312500 0.875000
vt 0.250000 0.562500
vt 0.250000 0.500000
vt 0.250000 0.687500
vt 0.250000 0.625000
vt 0.250000 0.812500
vt 0.250000 0.750000
vt 0.250000 0.937500
vt 0.250000 0.875000
vt 0.187500 0.562500
vt 0.187500 0.500000
vt 0.187500 0.687500
vt 0.187500 0.625000
vt 0.187500 0.812500
vt 0.187500 0.750000
vt 0.187500 0.937500
vt 0.187500 0.875000
vt 0.125000 0.562500
vt 0.125000 0.500000
vt 0.125000 0.687500
vt 0.125000 0.625000
vt 0.125000 0.812500
vt 0.125000 0.750000
vt 0.125000 0.937500
vt 0.125000 0.875000
vt 0.062500 0.562500
vt 0.062500 0.500000
vt 0.062500 0.687500
vt 0.062500 0.625000
vt 0.062500 0.812500
vt 0.062500 0.750000
vt 0.062500 0.937500
vt 0.062500 0.875000
vt 0.000000 0.562500
vt 0.000000 0.500000
vt 0.000000 0.687500
vt 0.000000 0.625000
vt 0.000000 0.812500
vt 0.000000 0.750000
vt 0.000000 0.937500
vt 0.000000 0.875000
vt 1.000000 0.500000
vt 1.000000 0.562500
vt 0.937500 0.562500
vt 0.937500 0.500000
vt 1.000000 0.625000
vt 1.000000 0.687500
vt 0.937500 0.687500
vt 0.937500 0.625000
vt 1.000000 0.750000
vt 1.000000 0.812500
vt 0.937500 0.812500
vt 0.937500 0.750000
vt 1.000000 0.875000
vt 1.000000 0.937500
vt 0.937500 0.937500
vt 0.937500 0.875000
vt 0.875000 0.562500
vt 0.875000 0.500000
vt 0.875000 0.687500
vt 0.875000 0.625000
vt 0.875000 0.812500
vt 0.875000 0.750000
vt 0.875000 0.937500
vt 0.875000 0.875000
vt 0.812500 0.562500
vt 0.812500 0.500000
vt 0.812500 0.687500
vt 0.812500 0.625000
vt 0.812500 0.812500
vt 0.812500 0.750000
vt 0.812500 0.937500
vt 0.812500 0.875000
vt 0.750000 0.562500
vt 0.750000 0.500000
vt 0.750000 0.687500
vt 0.750000 0.625000
vt 0.750000 0.812500
vt 0.750000 0.750000
vt 0.750000 0.937500
vt 0.750000 0.875000
vt 0.687500 0.562500
vt 0.687500 0.500000
vt 0.687500 0.687500
vt 0.687500 0.625000
vt 0.687500 0.812500
vt 0.687500 0.750000
vt 0.687500 0.937500
vt 0.687500 0.875000
vt 0.625000 0.562500
vt 0.625000 0.500000
vt 0.625000 0.687500
vt 0.625000 0.625000
vt 0.625000 0.812500
vt 0.625000 0.750000
vt 0.625000 0.937500
vt 0.625000 0.875000
vt 0.562500 0.562500
vt 0.562500 0.500000
vt 0.562500 0.687500
vt 0.562500 0.625000
vt 0.562500 0.812500
vt 0.562500 0.750000
vt 0.562500 0.937500
vt 0.562500 0.875000
vt 0.500000 0.562500
vt 0.500000 0.500000
vt 0.500000 0.687500
vt 0.500000 0.625000
vt 0.500000 0.812500
vt 0.500000 0.750000
vt 0.500000 0.937500
vt 0.500000 0.875000
vt 0.437500 0.562500
vt 0.437500 0.500000
vt 0.437500 0.687500
vt 0.437500 0.625000
vt 0.437500 0.812500
vt 0.437500 0.750000
vt 0.437500 0.937500
vt 0.437500 0.875000
vt 0.500000 1.000000
vt 0.437500 1.000000
vt 0.562500 1.000000
vt 0.625000 1.000000
vt 0.687500 1.000000
vt 0.750000 1.000000
vt 0.812500 1.000000
vt 0.875000 1.000000
vt 0.937500 1.000000
vt 1.000000 1.000000
vt 0.062500 1.000000
vt -0.000000 1.000000
vt 0.125000 1.000000
vt 0.187500 1.000000
vt 0.250000 1.000000
vt 0.312500 1.000000
vt 0.375000 1.000000
vt 0.437500 1.000000
vt 0.434642 1.000000
vt 0.031303 0.999906
vt 0.037377 0.999307
vt 0.043218 0.997535
vt 0.048601 0.994658
vt 0.053319 0.990786
vt 0.057192 0.986068
vt 0.060069 0.980685
vt 0.061841 0.974844
vt 0.062439 0.968769
vt 0.061841 0.962695
vt 0.060069 0.956854
vt 0.057192 0.951471
vt 0.053319 0.946753
vt 0.048601 0.942881
vt 0.043218 0.940004
vt 0.037644 0.938313
vt 0.025579 0.999342
vn 0.0016 0.0002 -1.0000
vn -0.0014 0.0003 -1.0000
vn 0.0009 0.0002 -1.0000
vn 0.0000 0.0000 -1.0000
vn 0.0000 -1.0000 0.0000
vn 0.9904 0.0975 0.0975
vn 0.9765 0.1930 0.0962
vn 0.9622 0.1939 0.1914
vn 0.9761 0.0980 0.1942
vn 0.9210 0.3790 0.0907
vn 0.8305 0.5509 0.0818
vn 0.8173 0.5528 0.1626
vn 0.9070 0.3805 0.1804
vn 0.7084 0.7023 0.0698
vn 0.5589 0.8274 0.0550
vn 0.5490 0.8286 0.1092
vn 0.6965 0.7041 0.1385
vn 0.3876 0.9210 0.0382
vn 0.1819 0.9831 0.0179
vn 0.1785 0.9833 0.0355
vn 0.3804 0.9217 0.0757
vn 0.9063 0.1939 0.3754
vn 0.9194 0.0980 0.3808
vn 0.7699 0.5528 0.3189
vn 0.8544 0.3805 0.3539
vn 0.5172 0.8286 0.2142
vn 0.6561 0.7041 0.2718
vn 0.1681 0.9833 0.0696
vn 0.3584 0.9217 0.1484
vn 0.8157 0.1939 0.5450
vn 0.8275 0.0980 0.5529
vn 0.6929 0.5528 0.4630
vn 0.7689 0.3805 0.5138
vn 0.4654 0.8286 0.3110
vn 0.5905 0.7041 0.3945
vn 0.1513 0.9833 0.1011
vn 0.3225 0.9217 0.2155
vn 0.6937 0.1939 0.6937
vn 0.7037 0.0980 0.7037
vn 0.5893 0.5528 0.5893
vn 0.6539 0.3805 0.6539
vn 0.3958 0.8286 0.3958
vn 0.5021 0.7041 0.5021
vn 0.1287 0.9833 0.1287
vn 0.2743 0.9217 0.2743
vn 0.5450 0.1939 0.8157
vn 0.5529 0.0980 0.8275
vn 0.4630 0.5528 0.6929
vn 0.5138 0.3805 0.7689
vn 0.3110 0.8286 0.4654
vn 0.3945 0.7041 0.5905
vn 0.1011 0.9833 0.1513
vn 0.2155 0.9217 0.3225
vn 0.3754 0.1939 0.9063
vn 0.3808 0.0980 0.9194
vn 0.3189 0.5528 0.7699
vn 0.3539 0.3805 0.8544
vn 0.2142 0.8286 0.5172
vn 0.2718 0.7041 0.6561
vn 0.0696 0.9833 0.1681
vn 0.1484 0.9217 0.3584
vn 0.1914 0.1939 0.9622
vn 0.1941 0.0980 0.9761
vn 0.1626 0.5528 0.8173
vn 0.1804 0.3805 0.9070
vn 0.1092 0.8286 0.5490
vn 0.1385 0.7041 0.6965
vn 0.0355 0.9833 0.1785
vn 0.0757 0.9217 0.3804
vn 0.0000 0.1939 0.9810
vn 0.0000 0.0980 0.9952
vn -0.0000 0.5528 0.8333
vn 0.0000 0.3805 0.9248
vn 0.0000 0.8286 0.5598
vn -0.0000 0.7041 0.7101
vn 0.0000 0.9833 0.1820
vn 0.0000 0.9217 0.3879
vn -0.1914 0.1939 0.9622
vn -0.1941 0.0980 0.9761
vn -0.1626 0.5528 0.8173
vn -0.1804 0.3805 0.9070
vn -0.1092 0.8286 0.5490
vn -0.1385 0.7041 0.6965
vn -0.0355 0.9833 0.1785
vn -0.0757 0.9217 0.3804
vn -0.3754 0.1939 0.9063
vn -0.3808 0.0980 0.9194
vn -0.3189 0.5528 0.7699
vn -0.3539 0.3805 0.8544
vn -0.2142 0.8286 0.5172
vn -0.2718 0.7041 0.6561
vn -0.0696 0.9833 0.1681
vn -0.1484 0.9217 0.3584
vn -0.5450 0.1939 0.8157
vn -0.5529 0.0980 0.8275
vn -0.4630 0.5528 0.6929
vn -0.5138 0.3805 0.7689
vn -0.3110 0.8286 0.4654
vn -0.3945 0.7041 0.5905
vn -0.1011 0.9833 0.1513
vn -0.2155 0.9217 0.3225
vn -0.6937 0.1939 0.6937
vn -0.7037 0.0980 0.7037
vn -0.5893 0.5528 0.5893
vn -0.6539 0.3805 0.6539
vn -0.3958 0.8286 0.3958
vn -0.5021 0.7041 0.5021
vn -0.1287 0.9833 0.1287
vn -0.2743 0.9217 0.2743
vn -0.8157 0.1939 0.5450
vn -0.8275 0.0980 0.5529
vn -0.6929 0.5528 0.4630
vn -0.7689 0.3805 0.5138
vn -0.4654 0.8286 0.3110
vn -0.5905 0.7041 0.3945
vn -0.1513 0.9833 0.1011
vn -0.3225 0.9217 0.2155
vn -0.9063 0.1939 0.3754
vn -0.9194 0.0980 0.3808
vn -0.7699 0.5528 0.3189
vn -0.8544 0.3805 0.3539
vn -0.5172 0.8286 0.2142
vn -0.6561 0.7041 0.2718
vn -0.1681 0.9833 0.0696
vn -0.3584 0.9217 0.1484
vn -0.9622 0.1939 0.1914
vn -0.9761 0.0980 0.1942
vn -0.8173 0.5528 0.1626
vn -0.9070 0.3805 0.1804
vn -0.5490 0.8286 0.1092
vn -0.6965 0.7041 0.1385
vn -0.1785 0.9833 0.0355
vn -0.3804 0.9217 0.0757
vn -0.9765 0.1930 0.0962
vn -0.9904 0.0975 0.0976
vn -0.8305 0.5509 0.0818
vn -0.9210 0.3790 0.0907
vn -0.5589 0.8274 0.0551
vn -0.7084 0.7023 0.0698
vn -0.1820 0.9831 0.0179
vn -0.3876 0.9210 0.0382
vn -0.0296 0.9995 0.0059
vn -0.0302 0.9995 0.0030
vn -0.0279 0.9995 0.0116
vn -0.0251 0.9995 0.0168
vn -0.0214 0.9995 0.0214
vn -0.0168 0.9995 0.0251
vn -0.0116 0.9995 0.0279
vn -0.0059 0.9995 0.0296
vn 0.0000 0.9995 0.0302
vn 0.0059 0.9995 0.0296
vn 0.0116 0.9995 0.0279
vn 0.0168 0.9995 0.0251
vn 0.0214 0.9995 0.0214
vn 0.0251 0.9995 0.0168
vn 0.0279 0.9995 0.0116
vn 0.0296 0.9995 0.0059
vn 0.0568 0.9984 0.0056
vn 0.0387 0.9992 0.0038
usemtl None
s off
f 155/1/1 154/2/1 138/3/1
f 15/4/2 154/2/2 155/1/2
f 154/2/3 4/5/3 138/3/3
f 16/6/4 154/2/4 15/4/4
f 154/2/4 3/7/4 4/5/4
f 13/8/4 154/2/4 16/6/4
f 154/2/4 2/9/4 3/7/4
f 14/10/4 154/2/4 13/8/4
f 154/2/4 1/11/4 2/9/4
f 11/12/4 154/2/4 14/10/4
f 154/2/4 8/13/4 1/11/4
f 12/14/4 154/2/4 11/12/4
f 154/2/4 7/15/4 8/13/4
f 9/16/4 154/2/4 12/14/4
f 154/2/4 6/17/4 7/15/4
f 10/18/4 154/2/4 9/16/4
f 154/2/4 5/19/4 6/17/4
f 130/20/5 5/21/5 154/2/5
f 10/22/5 18/23/5 154/2/5
f 154/2/5 66/24/5 74/25/5
f 130/20/5 154/2/5 122/26/5
f 154/2/5 26/27/5 34/28/5
f 122/26/5 154/2/5 114/29/5
f 154/2/5 34/28/5 42/30/5
f 114/29/5 154/2/5 106/31/5
f 154/2/5 42/30/5 50/32/5
f 106/31/5 154/2/5 98/33/5
f 154/2/5 50/32/5 58/34/5
f 98/33/5 154/2/5 90/35/5
f 154/2/5 58/34/5 66/24/5
f 90/35/5 154/2/5 82/36/5
f 82/36/5 154/2/5 74/25/5
f 154/2/5 18/23/5 26/27/5
s 1
f 10/37/6 9/38/7 17/39/8 18/40/9
f 12/41/10 11/42/11 19/43/12 20/44/13
f 14/45/14 13/46/15 21/47/16 22/48/17
f 16/49/18 15/50/19 23/51/20 24/52/21
f 9/38/7 12/41/10 20/44/13 17/39/8
f 11/42/11 14/45/14 22/48/17 19/43/12
f 13/46/15 16/49/18 24/52/21 21/47/16
f 18/40/9 17/39/8 25/53/22 26/54/23
f 20/44/13 19/43/12 27/55/24 28/56/25
f 22/48/17 21/47/16 29/57/26 30/58/27
f 24/52/21 23/51/20 31/59/28 32/60/29
f 17/39/8 20/44/13 28/56/25 25/53/22
f 19/43/12 22/48/17 30/58/27 27/55/24
f 21/47/16 24/52/21 32/60/29 29/57/26
f 26/54/23 25/53/22 33/61/30 34/62/31
f 28/56/25 27/55/24 35/63/32 36/64/33
f 30/58/27 29/57/26 37/65/34 38/66/35
f 32/60/29 31/59/28 39/67/36 40/68/37
f 25/53/22 28/56/25 36/64/33 33/61/30
f 27/55/24 30/58/27 38/66/35 35/63/32
f 29/57/26 32/60/29 40/68/37 37/65/34
f 34/62/31 33/61/30 41/69/38 42/70/39
f 36/64/33 35/63/32 43/71/40 44/72/41
f 38/66/35 37/65/34 45/73/42 46/74/43
f 40/68/37 39/67/36 47/75/44 48/76/45
f 33/61/30 36/64/33 44/72/41 41/69/38
f 35/63/32 38/66/35 46/74/43 43/71/40
f 37/65/34 40/68/37 48/76/45 45/73/42
f 42/70/39 41/69/38 49/77/46 50/78/47
f 44/72/41 43/71/40 51/79/48 52/80/49
f 46/74/43 45/73/42 53/81/50 54/82/51
f 48/76/45 47/75/44 55/83/52 56/84/53
f 41/69/38 44/72/41 52/80/49 49/77/46
f 43/71/40 46/74/43 54/82/51 51/79/48
f 45/73/42 48/76/45 56/84/53 53/81/50
f 50/78/47 49/77/46 57/85/54 58/86/55
f 52/80/49 51/79/48 59/87/56 60/88/57
f 54/82/51 53/81/50 61/89/58 62/90/59
f 56/84/53 55/83/52 63/91/60 64/92/61
f 49/77/46 52/80/49 60/88/57 57/85/54
f 51/79/48 54/82/51 62/90/59 59/87/56
f 53/81/50 56/84/53 64/92/61 61/89/58
f 58/86/55 57/85/54 65/93/62 66/94/63
f 60/88/57 59/87/56 67/95/64 68/96/65
f 62/90/59 61/89/58 69/97/66 70/98/67
f 64/92/61 63/91/60 71/99/68 72/100/69
f 57/85/54 60/88/57 68/96/65 65/93/62
f 59/87/56 62/90/59 70/98/67 67/95/64
f 61/89/58 64/92/61 72/100/69 69/97/66
f 66/101/63 65/102/62 73/103/70 74/104/71
f 68/105/65 67/106/64 75/107/72 76/108/73
f 70/109/67 69/110/66 77/111/74 78/112/75
f 72/113/69 71/114/68 79/115/76 80/116/77
f 65/102/62 68/105/65 76/108/73 73/103/70
f 67/106/64 70/109/67 78/112/75 75/107/72
f 69/110/66 72/113/69 80/116/77 77/111/74
f 74/104/71 73/103/70 81/117/78 82/118/79
f 76/108/73 75/107/72 83/119/80 84/120/81
f 78/112/75 77/111/74 85/121/82 86/122/83
f 80/116/77 79/115/76 87/123/84 88/124/85
f 73/103/70 76/108/73 84/120/81 81/117/78
f 75/107/72 78/112/75 86/122/83 83/119/80
f 77/111/74 80/116/77 88/124/85 85/121/82
f 82/118/79 81/117/78 89/125/86 90/126/87
f 84/120/81 83/119/80 91/127/88 92/128/89
f 86/122/83 85/121/82 93/129/90 94/130/91
f 88/124/85 87/123/84 95/131/92 96/132/93
f 81/117/78 84/120/81 92/128/89 89/125/86
f 83/119/80 86/122/83 94/130/91 91/127/88
f 85/121/82 88/124/85 96/132/93 93/129/90
f 90/126/87 89/125/86 97/133/94 98/134/95
f 92/128/89 91/127/88 99/135/96 100/136/97
f 94/130/91 93/129/90 101/137/98 102/138/99
f 96/132/93 95/131/92 103/139/100 104/140/101
f 89/125/86 92/128/89 100/136/97 97/133/94
f 91/127/88 94/130/91 102/138/99 99/135/96
f 93/129/90 96/132/93 104/140/101 101/137/98
f 98/134/95 97/133/94 105/141/102 106/142/103
f 100/136/97 99/135/96 107/143/104 108/144/105
f 102/138/99 101/137/98 109/145/106 110/146/107
f 104/140/101 103/139/100 111/147/108 112/148/109
f 97/133/94 100/136/97 108/144/105 105/141/102
f 99/135/96 102/138/99 110/146/107 107/143/104
f 101/137/98 104/140/101 112/148/109 109/145/106
f 106/142/103 105/141/102 113/149/110 114/150/111
f 108/144/105 107/143/104 115/151/112 116/152/113
f 110/146/107 109/145/106 117/153/114 118/154/115
f 112/148/109 111/147/108 119/155/116 120/156/117
f 105/141/102 108/144/105 116/152/113 113/149/110
f 107/143/104 110/146/107 118/154/115 115/151/112
f 109/145/106 112/148/109 120/156/117 117/153/114
f 114/150/111 113/149/110 121/157/118 122/158/119
f 116/152/113 115/151/112 123/159/120 124/160/121
f 118/154/115 117/153/114 125/161/122 126/162/123
f 120/156/117 119/155/116 127/163/124 128/164/125
f 113/149/110 116/152/113 124/160/121 121/157/118
f 115/151/112 118/154/115 126/162/123 123/159/120
f 117/153/114 120/156/117 128/164/125 125/161/122
f 122/158/119 121/157/118 129/165/126 130/166/127
f 124/160/121 123/159/120 131/167/128 132/168/129
f 126/162/123 125/161/122 133/169/130 134/170/131
f 128/164/125 127/163/124 135/171/132 136/172/133
f 121/157/118 124/160/121 132/168/129 129/165/126
f 123/159/120 126/162/123 134/170/131 131/167/128
f 125/161/122 128/164/125 136/172/133 133/169/130
f 130/166/127 129/165/126 6/173/134 5/174/135
f 132/168/129 131/167/128 8/175/136 7/176/137
f 134/170/131 133/169/130 2/177/138 1/178/139
f 136/172/133 135/171/132 4/179/140 3/180/141
f 129/165/126 132/168/129 7/176/137 6/173/134
f 131/167/128 134/170/131 1/178/139 8/175/136
f 133/169/130 136/172/133 3/180/141 2/177/138
f 135/171/132 137/181/142 138/182/143 4/179/140
f 127/163/124 139/183/144 137/181/142 135/171/132
f 119/155/116 140/184/145 139/183/144 127/163/124
f 111/147/108 141/185/146 140/184/145 119/155/116
f 103/139/100 142/186/147 141/185/146 111/147/108
f 95/131/92 143/187/148 142/186/147 103/139/100
f 87/123/84 144/188/149 143/187/148 95/131/92
f 79/115/76 145/189/150 144/188/149 87/123/84
f 71/114/68 146/190/151 145/189/150 79/115/76
f 63/91/60 147/191/152 146/192/151 71/99/68
f 55/83/52 148/193/153 147/191/152 63/91/60
f 47/75/44 149/194/154 148/193/153 55/83/52
f 39/67/36 150/195/155 149/194/154 47/75/44
f 31/59/28 151/196/156 150/195/155 39/67/36
f 23/51/20 152/197/157 151/196/156 31/59/28
f 15/50/19 153/198/158 155/199/159 152/197/157 23/51/20
f 137/200/142 139/201/144 140/202/145 141/203/146 142/204/147 143/205/148 144/206/149 145/207/150 146/208/151 147/209/152 148/210/153 149/211/154 150/212/155 151/213/156 152/214/157 155/215/159 138/216/143
