# Blender v2.79 (sub 0) OBJ File: ''
# www.blender.org
mtllib technic_cylinder_half.mtl
o Cylinder_Cylinder.001
v 0.500000 -0.500000 -0.500000
v -0.500000 -0.500000 -0.500000
v -0.500000 -0.402455 -0.490393
v 0.500000 -0.402455 -0.490393
v -0.500000 -0.308658 -0.461940
v 0.500000 -0.308658 -0.461940
v -0.500000 -0.222215 -0.415735
v 0.500000 -0.222215 -0.415735
v -0.500000 -0.146447 -0.353554
v 0.500000 -0.146447 -0.353553
v -0.500000 -0.084265 -0.277785
v 0.500000 -0.084265 -0.277785
v -0.500000 -0.038060 -0.191342
v 0.500000 -0.038060 -0.191342
v -0.500000 -0.009607 -0.097545
v 0.500000 -0.009607 -0.097545
v -0.500000 0.000000 0.000000
v 0.500000 0.000000 0.000000
v -0.500000 -0.009607 0.097545
v 0.500000 -0.009607 0.097545
v -0.500000 -0.038060 0.191341
v 0.500000 -0.038060 0.191342
v -0.500000 -0.084265 0.277785
v 0.500000 -0.084265 0.277785
v -0.500000 -0.146447 0.353553
v 0.500000 -0.146447 0.353553
v -0.500000 -0.222215 0.415735
v 0.500000 -0.222215 0.415735
v -0.500000 -0.308658 0.461940
v 0.500000 -0.308658 0.461940
v -0.500000 -0.402455 0.490392
v 0.500000 -0.402455 0.490393
v -0.500000 -0.500000 0.500000
v 0.500000 -0.500000 0.500000
v -0.500000 -0.500000 0.000000
v 0.500000 -0.500000 0.000000
vt 0.990253 0.097533
vt 0.499929 0.000000
vt 0.999858 0.000002
vt 0.961804 0.191316
vt 0.915605 0.277747
vt 0.853432 0.353503
vt 0.777675 0.415676
vt 0.691244 0.461875
vt 0.597461 0.490324
vt 0.499929 0.499929
vt 0.402398 0.490324
vt 0.308615 0.461875
vt 0.222184 0.415677
vt 0.146427 0.353504
vt 0.084254 0.277747
vt 0.038055 0.191316
vt 0.009606 0.097533
vt 0.499929 0.000000
vt 0.009606 0.097533
vt 0.000000 0.000001
vt 0.000000 0.000002
vt 0.038055 0.191316
vt 0.084253 0.277746
vt 0.146426 0.353503
vt 0.222184 0.415676
vt 0.308614 0.461875
vt 0.402398 0.490324
vt 0.499929 0.499930
vt 0.999859 0.000001
vt 0.990252 0.097533
vt 0.597460 0.490324
vt 0.691243 0.461875
vt 0.777675 0.415677
vt 0.853432 0.353504
vt 0.915605 0.277747
vt 0.961803 0.191316
vt 0.992769 0.999840
vt 0.004584 0.999840
vt 0.004584 0.937351
vt 0.992769 0.937350
vt 0.004584 0.874861
vt 0.992769 0.874860
vt 0.004583 0.812371
vt 0.992769 0.812370
vt 0.004583 0.749882
vt 0.992769 0.749880
vt 0.004583 0.687391
vt 0.992768 0.687390
vt 0.004583 0.624902
vt 0.992768 0.624900
vt 0.004583 0.562412
vt 0.992768 0.562410
vt 0.004582 0.499922
vt 0.992767 0.499920
vt 0.004582 0.437432
vt 0.992767 0.437430
vt 0.004581 0.374943
vt 0.992767 0.374940
vt 0.004581 0.312453
vt 0.992766 0.312450
vt 0.004581 0.249963
vt 0.992766 0.249960
vt 0.004580 0.187473
vt 0.992765 0.187470
vt 0.004580 0.124983
vt 0.992765 0.124980
vt 0.004579 0.062493
vt 0.992765 0.062490
vt 0.004579 0.000004
vt 0.992764 0.000000
vt 0.000100 0.999900
vt 0.000100 0.500000
vt 0.000100 0.000100
vt 0.999900 0.000100
vt 0.999900 0.500000
vt 0.999900 0.999900
vn 1.0000 0.0000 0.0000
vn -1.0000 0.0000 0.0000
vn 0.0000 -0.6716 -0.7409
vn 0.0000 0.1951 -0.9808
vn 0.0000 0.3827 -0.9239
vn 0.0000 0.5556 -0.8315
vn 0.0000 0.7071 -0.7071
vn 0.0000 0.8315 -0.5556
vn 0.0000 0.9239 -0.3827
vn 0.0000 0.9808 -0.1951
vn 0.0000 1.0000 0.0000
vn -0.0000 0.9808 0.1951
vn -0.0000 0.9239 0.3827
vn -0.0000 0.8315 0.5556
vn 0.0000 0.7071 0.7071
vn 0.0000 0.5556 0.8315
vn -0.0000 0.3827 0.9239
vn -0.0000 0.1951 0.9808
vn -0.0000 -0.6716 0.7410
vn 0.0000 -1.0000 -0.0000
usemtl None
s off
f 4/1/1 36/2/1 1/3/1
f 6/4/1 36/2/1 4/1/1
f 8/5/1 36/2/1 6/4/1
f 10/6/1 36/2/1 8/5/1
f 12/7/1 36/2/1 10/6/1
f 14/8/1 36/2/1 12/7/1
f 16/9/1 36/2/1 14/8/1
f 18/10/1 36/2/1 16/9/1
f 20/11/1 36/2/1 18/10/1
f 20/11/1 22/12/1 36/2/1
f 36/2/1 22/12/1 24/13/1
f 36/2/1 26/14/1 28/15/1
f 36/2/1 28/15/1 30/16/1
f 36/2/1 30/16/1 32/17/1
f 35/18/2 3/19/2 2/20/2
f 34/21/1 36/2/1 32/17/1
f 36/2/1 24/13/1 26/14/1
f 35/18/2 5/22/2 3/19/2
f 35/18/2 7/23/2 5/22/2
f 35/18/2 9/24/2 7/23/2
f 35/18/2 11/25/2 9/24/2
f 35/18/2 13/26/2 11/25/2
f 35/18/2 15/27/2 13/26/2
f 35/18/2 17/28/2 15/27/2
f 35/18/2 33/29/2 31/30/2
f 19/31/2 35/18/2 21/32/2
f 21/32/2 35/18/2 23/33/2
f 23/33/2 35/18/2 25/34/2
f 25/34/2 35/18/2 27/35/2
f 27/35/2 35/18/2 29/36/2
f 29/36/2 35/18/2 31/30/2
f 19/31/2 17/28/2 35/18/2
s 1
f 1/37/3 2/38/3 3/39/4 4/40/4
f 4/40/4 3/39/4 5/41/5 6/42/5
f 6/42/5 5/41/5 7/43/6 8/44/6
f 8/44/6 7/43/6 9/45/7 10/46/7
f 10/46/7 9/45/7 11/47/8 12/48/8
f 12/48/8 11/47/8 13/49/9 14/50/9
f 14/50/9 13/49/9 15/51/10 16/52/10
f 16/52/10 15/51/10 17/53/11 18/54/11
f 18/54/11 17/53/11 19/55/12 20/56/12
f 20/56/12 19/55/12 21/57/13 22/58/13
f 22/58/13 21/57/13 23/59/14 24/60/14
f 24/60/14 23/59/14 25/61/15 26/62/15
f 26/62/15 25/61/15 27/63/16 28/64/16
f 28/64/16 27/63/16 29/65/17 30/66/17
f 30/66/17 29/65/17 31/67/18 32/68/18
f 32/68/18 31/67/18 33/69/19 34/70/19
f 33/71/19 35/72/20 2/73/3 1/74/3 36/75/20 34/76/19
