# Blender v2.79 (sub 0) OBJ File: ''
# www.blender.org
mtllib technic_one_curved_edge_lr.mtl
o Cylinder_Cylinder.008
v -0.500000 -0.499999 -0.500000
v -0.500000 -0.499999 0.500000
v -0.480785 -0.304909 0.500000
v -0.480785 -0.304909 -0.500000
v -0.423879 -0.117316 0.500000
v -0.423879 -0.117316 -0.500000
v -0.331469 0.055571 0.500000
v -0.331469 0.055571 -0.500000
v -0.207106 0.207108 0.500000
v -0.207106 0.207108 -0.500000
v -0.055569 0.331470 0.500000
v -0.055569 0.331470 -0.500000
v 0.117318 0.423880 0.500000
v 0.117318 0.423880 -0.500000
v 0.304911 0.480786 0.500000
v 0.304911 0.480786 -0.500000
v 0.500000 0.500000 0.500000
v 0.500000 0.500000 -0.500000
v 0.500000 -0.500000 0.500000
v 0.500000 -0.500000 -0.500000
vt 0.000000 0.000000
vt 1.000000 0.000000
vt 1.000000 0.125000
vt 0.000000 0.125000
vt 1.000000 0.250000
vt 0.000000 0.250000
vt 1.000000 0.375000
vt 0.000000 0.375000
vt 1.000000 0.500000
vt 0.000000 0.500000
vt 1.000000 0.625000
vt 0.000000 0.625000
vt 1.000000 0.750000
vt 0.000000 0.750000
vt 1.000000 0.875000
vt 0.000000 0.875000
vt 1.000000 1.000000
vt 0.000000 1.000000
vt 1.000000 1.000000
vt 0.000000 1.000000
vt 0.000000 -0.000000
vt 1.000000 -0.000000
vt 1.000000 1.000000
vt 0.000000 1.000000
vt 0.019215 0.195091
vt 0.000000 0.000001
vt 1.000000 0.000000
vt 0.076121 0.382684
vt 0.168531 0.555571
vt 0.292894 0.707108
vt 0.444431 0.831470
vt 0.617318 0.923880
vt 0.804911 0.980786
vt 0.980785 0.195091
vt 0.000000 0.000000
vt 1.000000 0.000001
vt 0.923879 0.382684
vt 0.831469 0.555571
vt 0.707106 0.707108
vt 0.555569 0.831470
vt 0.382682 0.923880
vt 0.195089 0.980786
vn -0.5943 -0.5387 -0.5972
vn -0.5943 -0.5387 0.5972
vn -0.6918 0.1377 0.7088
vn -0.6918 0.1376 -0.7088
vn -0.6517 0.2700 0.7088
vn -0.6517 0.2699 -0.7088
vn -0.5865 0.3919 0.7088
vn -0.5865 0.3919 -0.7088
vn -0.4988 0.4988 0.7088
vn -0.4988 0.4988 -0.7088
vn -0.3919 0.5865 0.7088
vn -0.3919 0.5865 -0.7088
vn -0.2699 0.6517 0.7088
vn -0.2700 0.6517 -0.7088
vn -0.1376 0.6918 0.7088
vn -0.1376 0.6918 -0.7088
vn 0.5387 0.5943 0.5972
vn 0.5387 0.5943 -0.5972
vn 0.1230 -0.1231 0.9847
vn 0.1231 -0.1230 -0.9847
usemtl None
s 1
f 1/1/1 2/2/2 3/3/3 4/4/4
f 4/4/4 3/3/3 5/5/5 6/6/6
f 6/6/6 5/5/5 7/7/7 8/8/8
f 8/8/8 7/7/7 9/9/9 10/10/10
f 10/10/10 9/9/9 11/11/11 12/12/12
f 12/12/12 11/11/11 13/13/13 14/14/14
f 14/14/14 13/13/13 15/15/15 16/16/16
f 16/16/16 15/15/15 17/17/17 18/18/18
usemtl (null)
f 18/19/18 17/20/17 19/21/19 20/22/20
f 1/23/1 20/24/20 19/21/19 2/2/2
f 3/25/3 2/26/2 19/27/19
f 5/28/5 3/25/3 19/27/19
f 7/29/7 5/28/5 19/27/19
f 9/30/9 7/29/7 19/27/19
f 11/31/11 9/30/9 19/27/19
f 13/32/13 11/31/11 19/27/19
f 15/33/15 13/32/13 19/27/19
f 17/17/17 15/33/15 19/27/19
f 4/34/4 20/35/20 1/36/1
f 6/37/6 20/35/20 4/34/4
f 8/38/8 20/35/20 6/37/6
f 10/39/10 20/35/20 8/38/8
f 12/40/12 20/35/20 10/39/10
f 14/41/14 20/35/20 12/40/12
f 16/42/16 20/35/20 14/41/14
f 18/18/18 20/35/20 16/42/16
