v -0.375 -0.499999 -0.5
v -0.358187 -0.329295 -0.5
v -0.358187 -0.329295 0.5
v -0.375 -0.499999 0.5
v -0.308394 -0.165151 -0.5
v -0.308394 -0.165151 0.5
v -0.227535 -0.013875 -0.5
v -0.227535 -0.013875 0.5
v -0.118718 0.118719 -0.5
v -0.118718 0.118719 0.5
v 0.013877 0.227537 -0.5
v 0.013877 0.227537 0.5
v 0.165153 0.308395 -0.5
v 0.165153 0.308395 0.5
v 0.329297 0.358187 -0.5
v 0.329297 0.358187 0.5
v 0.5 0.375 -0.5
v 0.5 0.375 0.5
v -0.5 -0.499999 -0.5
v -0.5 -0.499999 0.5
v 0.5 0.5 0.5
v 0.5 0.5 -0.5
v -0.5 0.5 0.5
v -0.5 0.5 -0.5
vn 0 0 1
vn 0 0 -1
vn 0.9952 -0.098 0
vn 0.9808 -0.1951 0
vn 0.9239 -0.3827 0
vn 0.8315 -0.5556 0
vn 0.7071 -0.7071 0
vn 0.5556 -0.8315 0
vn 0.3827 -0.9239 0
vn 0.1951 -0.9808 0
vn 0.098 -0.9952 0
vn 0 -1 0
vn 1 0 0
vn -1 0 0
vn 0 1 0
vt 0.513877 0.727537
vt 0.665153 0.808395
vt 0 1
vt 0.191606 0.334848
vt 0.272465 0.486124
vt 0 0
vt 0.125 0
vt 0.141813 0.170704
vt 1 1
vt 0.829297 0.858187
vt 1 0.875
vt 0.381282 0.618719
vt 0.808394 0.334848
vt 1 0
vt 0.858187 0.170704
vt 0.875 0
vt 0.334847 0.808395
vt 0.486123 0.727537
vt 0.170703 0.858187
vt 0 0.875
vt 0.618718 0.618719
vt 0.727535 0.486124
vt 1 0.080477
vt 0 0.080477
vt 1 0.182905
vt 0 0.182905
vt 1 0.303347
vt 0 0.303347
vt 1 0.437175
vt 0 0.437175
vt 1 0.579247
vt 0 0.579247
vt 1 0.724101
vt 0 0.724101
vt 1 0.866173
vt 0 0.866173
vt 0.999929 0
vt 0.999929 0.124991
vt 0 0.124991
vt 1 0.875009
vt 0.000071 1
vt 0.000071 0.875009
vt 0.9999 0.9999
vt 0.0001 0.9999
vt 0.000099 0.0001
vt 0.9999 0.0001
vt 0.0001 0.0001
s 1
f 12/1/1 14/2/1 23/3/1
f 6/4/1 8/5/1 23/3/1
f 20/6/1 4/7/1 3/8/1
f 20/6/1 3/8/1 6/4/1
f 14/2/1 21/9/1 23/3/1
f 16/10/1 18/11/1 21/9/1
f 14/2/1 16/10/1 21/9/1
f 10/12/1 12/1/1 23/3/1
f 8/5/1 10/12/1 23/3/1
f 5/13/2 19/14/2 24/9/2
f 19/14/2 2/15/2 1/16/2
f 19/14/2 5/13/2 2/15/2
f 13/17/2 11/18/2 24/9/2
f 15/19/2 22/3/2 17/20/2
f 13/17/2 22/3/2 15/19/2
f 20/6/1 6/4/1 23/3/1
f 22/3/2 13/17/2 24/9/2
f 9/21/2 24/9/2 11/18/2
f 7/22/2 24/9/2 9/21/2
f 7/22/2 5/13/2 24/9/2
f 1/14/3 2/23/4 3/24/4 4/6/3
f 2/23/4 5/25/5 6/26/5 3/24/4
f 5/25/5 7/27/6 8/28/6 6/26/5
f 7/27/6 9/29/7 10/30/7 8/28/6
f 9/29/7 11/31/8 12/32/8 10/30/7
f 11/31/8 13/33/9 14/34/9 12/32/8
f 13/33/9 15/35/10 16/36/10 14/34/9
f 15/35/10 17/9/11 18/3/11 16/36/10
f 19/37/12 1/38/12 4/39/12 20/6/12
f 21/40/13 18/9/13 17/41/13 22/42/13
f 23/43/14 24/44/14 19/45/14 20/46/14
f 21/43/15 22/44/15 24/47/15 23/46/15
