v -0.5 -0.499999 0.5
v -0.480785 -0.304909 0.5
v -0.481147 -0.308587 -0.481147
v 0.5 -0.499999 -0.5
v -0.5 -0.499999 -0.5
v 0.5 -0.304909 -0.480785
v -0.423879 -0.117316 -0.423879
v 0.5 -0.117316 -0.423879
v -0.331469 0.055571 -0.331469
v 0.5 0.055571 -0.331469
v -0.207106 0.207108 -0.207106
v 0.5 0.207108 -0.207106
v -0.055569 0.33147 -0.055569
v 0.5 0.33147 -0.055569
v 0.117318 0.42388 0.117318
v 0.5 0.42388 0.117318
v 0.304911 0.480786 0.304911
v 0.5 0.480786 0.304911
v 0.5 -0.5 0.5
v 0.117318 0.42388 0.5
v 0.304911 0.480786 0.5
v -0.055569 0.33147 0.5
v -0.423879 -0.117316 0.5
v -0.331469 0.055571 0.5
v 0.5 0.5 0.5
v -0.207106 0.207108 0.5
vn -0.9952 0.098 0
vn -0.9809 0.1945 -0.0002
vn -0.9833 0.1818 -0.0002
vn 0 0.098 -0.9952
vn -0.0002 0.1818 -0.9833
vn -0.0002 0.1945 -0.9809
vn -0.0002 0.3596 -0.9331
vn -0.0002 0.3819 -0.9242
vn 0 0.528 -0.8493
vn 0 0.5556 -0.8315
vn 0 0.6786 -0.7345
vn 0 0.7071 -0.7071
vn 0 0.8061 -0.5917
vn 0 0.8315 -0.5556
vn 0 0.9048 -0.4258
vn 0 0.9239 -0.3827
vn 0 0.9701 -0.2426
vn 0 0.9808 -0.1951
vn 0 0.9952 -0.098
vn 0 -1 0
vn -0.2426 0.9701 0
vn -0.4258 0.9048 0
vn -0.3827 0.9239 0
vn -0.1951 0.9808 0
vn -0.5917 0.8061 0
vn -0.5556 0.8315 0
vn -0.8493 0.528 0
vn -0.9331 0.3596 -0.0002
vn -0.9242 0.3819 -0.0002
vn -0.8315 0.5556 0
vn -0.098 0.9952 0
vn -0.7345 0.6786 0
vn -0.7071 0.7071 0
vn 1 0 0
vn 0 0 1
vt 0 0
vt 1 0
vt 1 0.125
vt 0.017052 0.125
vt 0.982422 0.125
vt 0 0.125
vt 0.949219 0.25
vt 0 0.25
vt 0.904297 0.375
vt 0 0.375
vt 0.84375 0.5
vt 0 0.5
vt 0.744141 0.625
vt 0 0.625
vt 0.626953 0.75
vt 0 0.75
vt 0.425781 0.875
vt 0 0.875
vt 0 1
vt 1 1
vt 0.595663 0.875
vt 0.384227 0.75
vt 1 0.75
vt 1 0.875
vt 0.249926 0.625
vt 1 0.625
vt 0.089345 0.375
vt 0.045448 0.25
vt 1 0.25
vt 1 0.375
vt 0.15748 0.5
vt 1 0.5
vt 0.980785 0.195091
vt 1 0.000001
vt 0.923879 0.382684
vt 0.831469 0.555571
vt 0.707106 0.707108
vt 0.555569 0.83147
vt 0.382682 0.92388
vt 0.195089 0.980786
vt 0.019215 0.195091
vt 0.076121 0.382684
vt 0.168531 0.555571
vt 0.292894 0.707108
vt 0.444431 0.83147
vt 0.617318 0.92388
vt 0.804911 0.980786
s 1
f 5/1/1 1/2/1 2/3/2 3/4/3
f 4/1/4 5/2/4 3/5/5 6/6/6
f 6/6/6 3/5/5 7/7/7 8/8/8
f 8/8/8 7/7/7 9/9/9 10/10/10
f 10/10/10 9/9/9 11/11/11 12/12/12
f 12/12/12 11/11/11 13/13/13 14/14/14
f 14/14/14 13/13/13 15/15/15 16/16/16
f 16/16/16 15/15/15 17/17/17 18/18/18
f 18/18/18 17/17/17 25/19/19
s 0
f 4/19/20 19/1/20 1/2/20 5/20/20
s 1
f 17/21/21 15/22/22 20/23/23 21/24/24
f 15/22/22 13/25/25 22/26/26 20/23/23
f 9/27/27 7/28/28 23/29/29 24/30/30
f 25/20/31 17/21/21 21/24/24
f 11/31/32 9/27/27 24/30/30 26/32/33
f 7/28/28 3/4/3 2/3/2 23/29/29
f 13/25/25 11/31/32 26/32/33 22/26/26
s 0
f 6/33/34 19/1/34 4/34/34
f 8/35/34 19/1/34 6/33/34
f 10/36/34 19/1/34 8/35/34
f 12/37/34 19/1/34 10/36/34
f 14/38/34 19/1/34 12/37/34
f 16/39/34 19/1/34 14/38/34
f 18/40/34 19/1/34 16/39/34
f 25/19/34 19/1/34 18/40/34
f 19/2/35 2/41/35 1/1/35
f 23/42/35 2/41/35 19/2/35
f 24/43/35 23/42/35 19/2/35
f 26/44/35 24/43/35 19/2/35
f 22/45/35 26/44/35 19/2/35
f 20/46/35 22/45/35 19/2/35
f 21/47/35 20/46/35 19/2/35
f 19/2/35 25/20/35 21/47/35
