# Blender v2.79 (sub 0) OBJ File: ''
# www.blender.org
mtllib technic_tile.mtl
o Cube_Cube.001
v -0.500000 -0.500000 0.500000
v -0.500000 -0.500000 -0.500000
v 0.500000 -0.500000 0.500000
v 0.500000 -0.500000 -0.500000
v -0.450000 -0.400000 0.450000
v -0.500000 -0.450000 0.500000
v -0.450000 -0.400000 -0.450000
v -0.500000 -0.450000 -0.500000
v 0.450000 -0.400000 0.450000
v 0.500000 -0.450000 0.500000
v 0.450000 -0.400000 -0.450000
v 0.500000 -0.450000 -0.500000
vt 0.961182 0.961182
vt 0.038818 0.961182
vt 0.038818 0.038817
vt 0.961182 0.038817
vt 0.999978 0.000022
vt 0.999978 0.050020
vt 0.000022 0.050020
vt 0.000022 0.000023
vt 0.000022 0.050020
vt 0.000022 0.000022
vt 0.999978 0.000022
vt 0.999978 0.050020
vt 0.000100 0.000100
vt 0.999900 0.000100
vt 0.999900 0.999900
vt 0.000100 0.999900
vt 0.000022 0.050020
vt 0.000022 0.000022
vt 0.999978 0.000022
vt 0.999978 0.050020
vt -0.000402 1.000402
vt -0.000402 -0.000402
vt 1.000402 1.000402
vt 1.000402 -0.000402
vt 0.999978 0.000022
vt 0.999978 0.050020
vt 0.000022 0.050020
vt 0.000022 0.000023
vn 0.0000 1.0000 0.0000
vn 1.0000 0.0000 0.0000
vn -1.0000 0.0000 0.0000
vn 0.0000 -1.0000 0.0000
vn 0.0000 0.0000 -1.0000
vn -0.7071 0.7071 0.0000
vn 0.0000 0.7071 -0.7071
vn 0.7071 0.7071 0.0000
vn 0.0000 0.7071 0.7071
vn 0.0000 0.0000 1.0000
usemtl None
s off
f 11/1/1 7/2/1 5/3/1 9/4/1
f 4/5/2 12/6/2 10/7/2 3/8/2
f 1/9/3 6/10/3 8/11/3 2/12/3
f 2/13/4 4/14/4 3/15/4 1/16/4
f 2/17/5 8/18/5 12/19/5 4/20/5
f 5/3/6 7/2/6 8/21/6 6/22/6
f 7/2/7 11/1/7 12/23/7 8/21/7
f 11/1/8 9/4/8 10/24/8 12/23/8
f 9/4/9 5/3/9 6/22/9 10/24/9
f 3/25/10 10/26/10 6/27/10 1/28/10
