# Blender v2.79 (sub 0) OBJ File: ''
# www.blender.org
mtllib technic_beam_216_tee.mtl
o Cube_Cube.000
v 0.500000 -0.000000 0.062500
v 0.500000 0.500000 0.062500
v -0.500000 0.500000 0.062500
v -0.500000 -0.000000 0.062500
v -0.500000 0.500000 -0.062500
v -0.500000 0.000000 -0.062500
v 0.500000 0.500000 -0.062500
v 0.500000 0.000000 -0.062500
v -0.062500 0.000000 0.000000
v -0.062500 0.500000 0.000000
v -0.062500 0.500000 -0.500000
v -0.062500 0.000000 -0.500000
v 0.062500 0.500000 -0.500000
v 0.062500 0.000000 -0.500000
v 0.062500 0.000000 0.000000
v 0.062500 0.500000 0.000000
v -0.062500 0.500000 -0.063387
v 0.062500 0.500000 -0.063564
v -0.062500 0.000000 -0.062645
v 0.062500 0.000000 -0.062253
vt 0.999900 0.500100
vt 0.999900 1.000000
vt 0.000100 1.000000
vt 0.000100 0.500100
vt 0.124975 0.500100
vt 0.124975 1.000000
vt 0.000000 1.000000
vt -0.000000 0.500100
vt 0.999900 0.500100
vt 0.999900 1.000000
vt 0.000100 1.000000
vt 0.000100 0.500100
vt 0.124975 0.500100
vt 0.124975 1.000000
vt 0.000000 1.000000
vt 0.000000 0.500100
vt 0.000200 1.000000
vt 0.000200 0.875025
vt 1.000000 0.875025
vt 1.000000 1.000000
vt 0.000200 1.000000
vt 0.000200 0.875025
vt 1.000000 0.875025
vt 1.000000 1.000000
vt 0.500000 0.500100
vt 0.500000 1.000000
vt 0.436625 1.000000
vt 0.000100 1.000000
vt 0.000100 0.500100
vt 0.437367 0.500100
vt 0.124975 0.500100
vt 0.124975 1.000000
vt 0.000000 1.000000
vt 0.000000 0.500100
vt 0.562340 1.000000
vt 0.562733 0.875025
vt 1.000000 0.875025
vt 1.000000 1.000000
vt 0.563475 1.000000
vt 0.563651 0.875025
vt 1.000000 0.875025
vt 1.000000 1.000000
vt 0.999900 0.500100
vt 0.999900 1.000000
vt 0.563551 1.000000
vt 0.500000 1.000000
vt 0.500000 0.500100
vt 0.562240 0.500100
vn 0.0000 -0.0000 1.0000
vn -1.0000 0.0000 0.0000
vn 0.0000 0.0000 -1.0000
vn 1.0000 0.0000 0.0000
vn 0.0000 -1.0000 -0.0000
vn 0.0000 1.0000 0.0000
usemtl None.001
s 1
f 1/1/1 2/2/1 3/3/1 4/4/1
f 4/5/2 3/6/2 5/7/2 6/8/2
f 6/9/3 5/10/3 7/11/3 8/12/3
f 8/13/4 7/14/4 2/15/4 1/16/4
f 4/17/5 6/18/5 8/19/5 1/20/5
f 5/21/6 3/22/6 2/23/6 7/24/6
usemtl None_default_brick.png.001
f 9/25/2 10/26/2 17/27/2 11/28/2 12/29/2 19/30/2
f 12/31/3 11/32/3 13/33/3 14/34/3
f 20/35/5 19/36/5 12/37/5 14/38/5
f 17/39/6 18/40/6 13/41/6 11/42/6
f 14/43/4 13/44/4 18/45/4 16/46/4 15/47/4 20/48/4
