# Blender v2.79 (sub 0) OBJ File: ''
# www.blender.org
mtllib technic_beam_216_cross.mtl
o Cube_Cube.004
v 0.500000 0.000000 0.062500
v 0.500000 0.500000 0.062500
v -0.500000 0.000000 0.062500
v -0.500000 0.500000 0.062500
v 0.500000 0.000000 -0.062500
v 0.500000 0.500000 -0.062500
v -0.500000 0.000000 -0.062500
v -0.500000 0.500000 -0.062500
v -0.062500 0.000000 0.500000
v -0.062500 0.500000 0.500000
v -0.062500 0.000000 -0.500000
v -0.062500 0.500000 -0.500000
v 0.062500 0.000000 0.500000
v 0.062500 0.500000 0.500000
v 0.062500 0.000000 -0.500000
v 0.062500 0.500000 -0.500000
vt 0.999900 0.500100
vt 0.999900 1.000000
vt 0.000100 1.000000
vt 0.000100 0.500100
vt 0.124975 0.500100
vt 0.124975 1.000000
vt 0.000000 1.000000
vt -0.000000 0.500100
vt 0.999900 0.500100
vt 0.999900 1.000000
vt 0.000100 1.000000
vt 0.000100 0.500100
vt 0.124975 0.500100
vt 0.124975 1.000000
vt 0.000000 1.000000
vt 0.000000 0.500100
vt 0.000200 1.000000
vt 0.000200 0.875025
vt 1.000000 0.875025
vt 1.000000 1.000000
vt 0.000200 1.000000
vt 0.000200 0.875025
vt 1.000000 0.875025
vt 1.000000 1.000000
vt 0.999900 0.500100
vt 0.999900 1.000000
vt 0.000100 1.000000
vt 0.000100 0.500100
vt 0.124975 0.500100
vt 0.124975 1.000000
vt 0.000000 1.000000
vt -0.000000 0.500100
vt 0.999900 0.500100
vt 0.999900 1.000000
vt 0.000100 1.000000
vt 0.000100 0.500100
vt 0.124975 0.500100
vt 0.124975 1.000000
vt 0.000000 1.000000
vt 0.000000 0.500100
vt 0.000200 1.000000
vt 0.000200 0.875025
vt 1.000000 0.875025
vt 1.000000 1.000000
vt 0.000200 1.000000
vt 0.000200 0.875025
vt 1.000000 0.875025
vt 1.000000 1.000000
vn -1.0000 0.0000 0.0000
vn 0.0000 0.0000 -1.0000
vn 1.0000 0.0000 0.0000
vn 0.0000 0.0000 1.0000
vn 0.0000 -1.0000 0.0000
vn 0.0000 1.0000 0.0000
usemtl None
s off
f 9/1/1 10/2/1 12/3/1 11/4/1
f 11/5/2 12/6/2 16/7/2 15/8/2
f 15/9/3 16/10/3 14/11/3 13/12/3
f 13/13/4 14/14/4 10/15/4 9/16/4
f 11/17/5 15/18/5 13/19/5 9/20/5
f 16/21/6 12/22/6 10/23/6 14/24/6
usemtl None_default_brick.png
f 1/25/4 2/26/4 4/27/4 3/28/4
f 3/29/1 4/30/1 8/31/1 7/32/1
f 7/33/2 8/34/2 6/35/2 5/36/2
f 5/37/3 6/38/3 2/39/3 1/40/3
f 3/41/5 7/42/5 5/43/5 1/44/5
f 8/45/6 4/46/6 2/47/6 6/48/6
