# Blender v2.79 (sub 0) OBJ File: ''
# www.blender.org
mtllib technic_thin_arch_flange.mtl
o Cylinder_Cylinder.003
v -0.500000 -0.499999 -0.500000
v -0.500000 -0.499999 0.500000
v -0.500000 0.500000 -0.500000
v -0.500000 0.500000 0.500000
v 0.500000 0.500000 0.500000
v 0.500000 0.500000 -0.500000
v -0.375000 -0.499999 -0.500000
v -0.358187 -0.329295 -0.500000
v -0.358187 -0.329295 0.500000
v -0.375000 -0.499999 0.500000
v -0.308394 -0.165151 -0.500000
v -0.308394 -0.165151 0.500000
v -0.227535 -0.013875 -0.500000
v -0.227535 -0.013875 0.500000
v -0.118718 0.118719 -0.500000
v -0.118718 0.118719 0.500000
v 0.013877 0.227537 -0.500000
v 0.013877 0.227537 0.500000
v 0.165153 0.308395 -0.500000
v 0.165153 0.308395 0.500000
v 0.329297 0.358187 -0.500000
v 0.329297 0.358187 0.500000
v 0.500000 0.375000 -0.500000
v 0.500000 0.375000 0.500000
vt 1.000000 0.000000
vt 1.000000 0.080477
vt 0.000000 0.080477
vt 0.000000 0.000000
vt 1.000000 0.182905
vt 0.000000 0.182905
vt 1.000000 0.303347
vt 0.000000 0.303347
vt 1.000000 0.437175
vt 0.000000 0.437175
vt 1.000000 0.579247
vt 0.000000 0.579247
vt 1.000000 0.724101
vt 0.000000 0.724101
vt 1.000000 0.866173
vt 0.000000 0.866173
vt 1.000000 1.000000
vt 0.000000 1.000000
vt 0.999929 0.000000
vt 0.999929 0.124991
vt 0.000000 0.124991
vt 0.000000 0.000000
vt 1.000000 0.875009
vt 1.000000 1.000000
vt 0.000071 1.000000
vt 0.000071 0.875009
vt 0.999900 0.999900
vt 0.000100 0.999900
vt 0.000099 0.000100
vt 0.999900 0.000100
vt 0.999900 0.999900
vt 0.000100 0.999900
vt 0.000100 0.000100
vt 0.999900 0.000100
vt 0.513877 0.727537
vt 0.665153 0.808395
vt 0.000000 1.000000
vt 0.191606 0.334848
vt 0.272465 0.486124
vt 0.125000 0.000000
vt 0.141813 0.170704
vt 1.000000 1.000000
vt 0.829297 0.858187
vt 1.000000 0.875000
vt 0.381282 0.618719
vt 0.808394 0.334848
vt 1.000000 0.000000
vt 1.000000 1.000000
vt 0.858187 0.170704
vt 0.875000 0.000000
vt 0.334847 0.808395
vt 0.486123 0.727537
vt 0.170703 0.858187
vt 0.000000 1.000000
vt 0.000000 0.875000
vt 0.618718 0.618719
vt 0.727535 0.486124
vn 0.9952 -0.0980 -0.0000
vn 0.9569 -0.2903 -0.0000
vn 0.8819 -0.4714 -0.0000
vn 0.7730 -0.6344 -0.0000
vn 0.6344 -0.7730 -0.0000
vn 0.4714 -0.8819 -0.0000
vn 0.2903 -0.9569 -0.0000
vn 0.0980 -0.9952 -0.0000
vn 0.0000 -1.0000 -0.0000
vn 1.0000 0.0000 0.0000
vn -1.0000 0.0000 0.0000
vn 0.0000 1.0000 0.0000
vn -0.0000 0.0000 1.0000
vn -0.0000 0.0000 -1.0000
usemtl None
s 1
f 7/1/1 8/2/1 9/3/1 10/4/1
f 8/2/2 11/5/2 12/6/2 9/3/2
f 11/5/3 13/7/3 14/8/3 12/6/3
f 13/7/4 15/9/4 16/10/4 14/8/4
f 15/9/5 17/11/5 18/12/5 16/10/5
f 17/11/6 19/13/6 20/14/6 18/12/6
f 19/13/7 21/15/7 22/16/7 20/14/7
f 21/15/8 23/17/8 24/18/8 22/16/8
f 1/19/9 7/20/9 10/21/9 2/22/9
f 5/23/10 24/24/10 23/25/10 6/26/10
f 4/27/11 3/28/11 1/29/11 2/30/11
f 5/31/12 6/32/12 3/33/12 4/34/12
usemtl None_default_brick.png
s off
f 18/35/13 20/36/13 4/37/13
f 12/38/13 14/39/13 4/37/13
f 2/22/13 10/40/13 9/41/13
f 2/22/13 9/41/13 12/38/13
f 20/36/13 5/42/13 4/37/13
f 22/43/13 24/44/13 5/42/13
f 20/36/13 22/43/13 5/42/13
f 16/45/13 18/35/13 4/37/13
f 14/39/13 16/45/13 4/37/13
f 11/46/14 1/47/14 3/48/14
f 1/47/14 8/49/14 7/50/14
f 1/47/14 11/46/14 8/49/14
f 19/51/14 17/52/14 3/48/14
f 21/53/14 6/54/14 23/55/14
f 19/51/14 6/54/14 21/53/14
f 2/22/13 12/38/13 4/37/13
f 6/54/14 19/51/14 3/48/14
f 15/56/14 3/48/14 17/52/14
f 13/57/14 3/48/14 15/56/14
f 13/57/14 11/46/14 3/48/14
