# Blender v2.79 (sub 0) OBJ File: ''
# www.blender.org
mtllib technic_inner_curved_edge.mtl
o Cylinder_Cylinder.000
v -0.500000 -0.500000 -0.000000
v -0.500000 -0.402455 -0.009607
v 0.500000 -0.402455 -0.009607
v 0.500000 -0.500000 -0.000000
v -0.500000 -0.308658 -0.038060
v 0.500000 -0.308658 -0.038060
v -0.500000 -0.222215 -0.084265
v 0.500000 -0.222215 -0.084265
v -0.500000 -0.146446 -0.146447
v 0.500000 -0.146446 -0.146447
v -0.500000 -0.084265 -0.222215
v 0.500000 -0.084265 -0.222215
v -0.500000 -0.038060 -0.308659
v 0.500000 -0.038060 -0.308659
v -0.500000 -0.009607 -0.402455
v 0.500000 -0.009607 -0.402455
v -0.500000 0.000000 -0.500000
v 0.500000 0.000000 -0.500000
v 0.500000 -0.500000 0.500000
v -0.500000 -0.500000 0.500000
v -0.500000 0.500000 -0.500000
v 0.500000 0.500000 -0.500000
v 0.500000 0.500000 0.500000
v -0.500000 0.500000 0.500000
vt 1.000000 0.000000
vt 1.000000 0.115813
vt 0.000000 0.115813
vt 0.000000 0.000000
vt 1.000000 0.244499
vt 0.000000 0.244499
vt 1.000000 0.381110
vt 0.000000 0.381110
vt 1.000000 0.520399
vt 0.000000 0.520399
vt 1.000000 0.657010
vt 0.000000 0.657010
vt 1.000000 0.785695
vt 0.000000 0.785696
vt 1.000000 0.901509
vt 0.000000 0.901509
vt 1.000000 1.000000
vt 0.000000 1.000000
vt 0.000000 1.000000
vt 0.000000 0.500000
vt 1.000000 0.500000
vt 1.000000 1.000000
vt 0.000000 0.000000
vt 1.000000 0.000000
vt 1.000000 0.500000
vt 0.000000 0.500000
vt 0.000000 0.000000
vt 0.000000 1.000000
vt 1.000000 1.000000
vt 1.000000 0.000000
vt 0.000000 0.000000
vt 1.000000 0.000000
vt 0.902455 0.490393
vt 1.000000 0.500000
vt 1.000000 1.000000
vt 0.808659 0.461940
vt 1.000000 1.000000
vt 1.000000 0.500000
vt 0.902455 0.490393
vt 0.722215 0.415735
vt 0.646447 0.353554
vt 0.584265 0.277785
vt 0.538060 0.191342
vt 0.509607 0.097545
vt 0.500000 0.000000
vt 0.000000 -0.000000
vt 0.584265 0.277785
vt 0.538060 0.191342
vt 0.509607 0.097545
vt 0.808659 0.461940
vt 0.722215 0.415735
vt 0.000000 1.000000
vt 0.646447 0.353554
vt 0.500000 0.000000
vn 0.0000 -0.0980 -0.9952
vn 0.0000 -0.2903 -0.9569
vn 0.0000 -0.4714 -0.8819
vn 0.0000 -0.6344 -0.7730
vn 0.0000 -0.7730 -0.6344
vn 0.0000 -0.8819 -0.4714
vn 0.0000 -0.9569 -0.2903
vn 0.0000 -0.9952 -0.0980
vn 0.0000 -1.0000 0.0000
vn 0.0000 0.0000 -1.0000
vn 0.7071 -0.0000 0.7071
vn 0.5773 0.5774 0.5774
vn -0.5773 0.5774 0.5774
vn -0.7071 -0.0000 0.7071
vn 0.7071 0.7071 0.0000
vn -0.7071 0.7071 0.0000
vn 1.0000 0.0000 0.0000
vn -1.0000 0.0000 0.0000
usemtl Material.002
s 1
f 1/1/1 2/2/1 3/3/1 4/4/1
f 2/2/2 5/5/2 6/6/2 3/3/2
f 5/5/3 7/7/3 8/8/3 6/6/3
f 7/7/4 9/9/4 10/10/4 8/8/4
f 9/9/5 11/11/5 12/12/5 10/10/5
f 11/11/6 13/13/6 14/14/6 12/12/6
f 13/13/7 15/15/7 16/16/7 14/14/7
f 15/15/8 17/17/8 18/18/8 16/16/8
f 4/19/9 19/20/9 20/21/9 1/22/9
f 18/23/10 17/24/10 21/25/10 22/26/10
f 19/27/11 23/28/12 24/29/13 20/30/14
f 22/31/15 21/32/16 24/29/13 23/28/12
f 16/33/17 18/34/17 22/35/15
f 16/33/17 22/35/15 14/36/17
f 21/37/16 17/38/18 15/39/18
f 23/28/12 12/40/17 22/35/15
f 10/41/17 12/40/17 23/28/12
f 8/42/17 10/41/17 23/28/12
f 6/43/17 8/42/17 19/27/11
f 3/44/17 6/43/17 19/27/11
f 4/45/17 3/44/17 19/27/11
f 19/27/11 8/42/17 23/28/12
f 22/35/15 12/40/17 14/36/17
f 20/46/14 7/47/18 5/48/18
f 20/46/14 5/48/18 2/49/18
f 13/50/18 11/51/18 21/37/16
f 24/52/13 11/51/18 9/53/18
f 24/52/13 9/53/18 7/47/18
f 24/52/13 7/47/18 20/46/14
f 21/37/16 11/51/18 24/52/13
f 13/50/18 21/37/16 15/39/18
f 20/46/14 2/49/18 1/54/18
