v -0.5 -0.5 0
v -0.5 -0.402455 -0.009607
v 0.5 -0.402455 -0.009607
v 0.5 -0.5 0
v -0.5 -0.308658 -0.03806
v 0.5 -0.308658 -0.03806
v -0.5 -0.222215 -0.084265
v 0.5 -0.222215 -0.084265
v -0.5 -0.146446 -0.146447
v 0.5 -0.146446 -0.146447
v -0.5 -0.084265 -0.222215
v 0.5 -0.084265 -0.222215
v -0.5 -0.03806 -0.308659
v 0.5 -0.03806 -0.308659
v -0.5 -0.009607 -0.402455
v 0.5 -0.009607 -0.402455
v -0.5 0 -0.5
v 0.5 0 -0.5
v 0.5 -0.5 0.5
v -0.5 -0.5 0.5
v -0.5 0.5 -0.5
v 0.5 0.5 -0.5
v 0.5 0.5 0.5
v -0.5 0.5 0.5
vn -1 0 0
vn 1 0 0
vn 0 -0.098 -0.9952
vn 0 -0.1951 -0.9808
vn 0 -0.3827 -0.9239
vn 0 -0.5556 -0.8315
vn 0 -0.7071 -0.7071
vn 0 -0.8315 -0.5556
vn 0 -0.9239 -0.3827
vn 0 -0.9808 -0.1951
vn 0 -0.9952 -0.098
vn 0 -1 0
vn 0 0 -1
vn 0 1 0
vn 0 0 1
vt 1 0
vt 0.415735 0.277785
vt 0.46194 0.191342
vt 0.353553 0.353554
vt 0 0
vt 0.584265 0.277785
vt 0.646447 0.353554
vt 0.097545 0.490393
vt 0 1
vt 0 0.5
vt 0.191341 0.46194
vt 0.277785 0.415735
vt 0.722215 0.415735
vt 1 1
vt 0.5 0
vt 0.509607 0.097545
vt 0.53806 0.191342
vt 0.902455 0.490393
vt 1 0.5
vt 0.808659 0.46194
vt 0.490393 0.097545
vt 1 0.115813
vt 0 0.115813
vt 1 0.244499
vt 0 0.244499
vt 1 0.38111
vt 0 0.38111
vt 1 0.520399
vt 0 0.520399
vt 1 0.65701
vt 0 0.65701
vt 1 0.785695
vt 0 0.785696
vt 1 0.901509
vt 0 0.901509
vt 0.0001 0.9999
vt 0.0001 0.0001
vt 0.9999 0.0001
vt 0.9999 0.9999
vt 0.000001 1
s 1
f 20/1/1 7/2/1 5/3/1
f 20/1/1 9/4/1 7/2/1
f 19/5/2 8/6/2 10/7/2
f 15/8/1 21/9/1 17/10/1
f 13/11/1 21/9/1 15/8/1
f 11/12/1 21/9/1 13/11/1
f 10/7/2 12/13/2 22/14/2
f 19/5/2 4/15/2 3/16/2
f 19/5/2 3/16/2 6/17/2
f 19/5/2 6/17/2 8/6/2
f 11/12/1 9/4/1 21/9/1
f 16/18/2 18/19/2 22/14/2
f 14/20/2 16/18/2 22/14/2
f 12/13/2 14/20/2 22/14/2
f 19/5/2 10/7/2 22/14/2
f 20/1/1 5/3/1 2/21/1
f 20/1/1 2/21/1 1/15/1
f 9/4/1 20/1/1 21/9/1
f 1/1/3 2/22/4 3/23/4 4/5/3
f 2/22/4 5/24/5 6/25/5 3/23/4
f 5/24/5 7/26/6 8/27/6 6/25/5
f 7/26/6 9/28/7 10/29/7 8/27/6
f 9/28/7 11/30/8 12/31/8 10/29/7
f 11/30/8 13/32/9 14/33/9 12/31/8
f 13/32/9 15/34/10 16/35/10 14/33/9
f 15/34/10 17/14/11 18/9/11 16/35/10
f 4/10/12 19/5/12 20/1/12 1/19/12
f 18/10/13 17/19/13 21/14/13 22/9/13
f 23/36/14 22/37/14 21/38/14 24/39/14
f 22/14/2 23/40/2 19/5/2
f 21/9/1 20/1/1 24/14/1
f 24/36/15 20/37/15 19/38/15 23/39/15
