# Blender v2.79 (sub 0) OBJ File: ''
# www.blender.org
mtllib technic_diagonal_truss_cross.mtl
o Cube.001_Cube.010
v 0.500003 -0.500003 -0.125000
v 0.500003 -0.500003 0.125000
v 0.323437 -0.500214 -0.125000
v 0.323437 -0.500214 0.125000
v 0.499766 -0.322989 0.125000
v 0.499766 -0.322989 -0.125000
v -0.500003 0.500003 -0.125000
v -0.500003 0.500003 0.125000
v -0.500003 0.500003 -0.125000
v -0.500003 0.500003 0.125000
v -0.676779 0.500003 -0.125000
v -0.676779 0.500003 0.125000
v -0.500003 0.676779 -0.125000
v -0.500003 0.676779 0.125000
v -0.500003 -0.500003 -0.125000
v -0.500003 -0.500003 0.125000
v -0.500213 -0.323437 -0.125000
v -0.500213 -0.323437 0.125000
v -0.322989 -0.499766 0.125000
v -0.322989 -0.499766 -0.125000
v 0.500003 0.500003 -0.125000
v 0.500003 0.500003 0.125000
v 0.500003 0.500003 -0.125000
v 0.500003 0.500003 0.125000
v 0.500003 0.676779 -0.125000
v 0.500003 0.676779 0.125000
v 0.676779 0.500003 -0.125000
v 0.676779 0.500003 0.125000
v 0.000029 0.176748 0.125000
v -0.176187 -0.000589 0.125000
v 0.175892 0.000885 0.125000
v 0.000244 -0.177020 0.125000
v 0.175852 -0.000925 -0.125000
v -0.000554 0.176222 -0.125000
v -0.001331 -0.178108 -0.125000
v -0.176762 0.000014 -0.125000
vt 0.918999 0.620735
vt 0.000192 0.620735
vt 0.081386 0.505909
vt 0.000192 0.391082
vt 0.918588 0.391082
vt 1.000000 0.505909
vt -0.000005 0.375051
vt 0.323053 0.375051
vt 0.499411 0.375051
vt 0.999795 0.375051
vt 0.999795 0.624949
vt -0.000005 0.624949
vt 0.624975 0.615432
vt 0.499990 0.615432
vt 0.499990 0.369299
vt 0.624975 0.369299
vt 0.000219 0.624856
vt 0.000219 0.374906
vt 0.999781 0.374906
vt 0.999781 0.624856
vt 0.499852 0.624856
vt 0.324026 0.624856
vt 0.375025 0.615432
vt 0.375025 0.369299
vt 0.540151 0.611726
vt 0.540666 0.382073
vt 1.000000 0.382073
vt 0.918806 0.496900
vt 1.000000 0.611726
vt 0.492368 0.623067
vt 0.492368 0.376933
vt 0.617343 0.376933
vt 0.617343 0.623067
vt 0.367392 0.623067
vt 0.367392 0.376933
vt 0.081192 0.611726
vt 0.000192 0.496900
vt 0.081604 0.382073
vt 0.379117 0.382073
vt 0.378081 0.611726
vt 0.460008 0.620735
vt 0.000192 0.620735
vt 0.081386 0.505909
vt 0.000192 0.391082
vt 0.460349 0.391082
vt -0.000005 0.375051
vt 0.999795 0.375051
vt 0.999795 0.624949
vt 0.499446 0.624949
vt 0.323311 0.624949
vt -0.000005 0.624949
vt 0.624975 0.615432
vt 0.499990 0.615432
vt 0.499990 0.369299
vt 0.624975 0.369299
vt 0.000219 0.624856
vt 0.000219 0.374906
vt 0.321810 0.374906
vt 0.498957 0.374906
vt 0.999781 0.374906
vt 0.999781 0.624856
vt 0.375025 0.615432
vt 0.375025 0.369299
vt 0.081192 0.611726
vt 0.000192 0.496900
vt 0.081604 0.382073
vt 1.000000 0.382073
vt 0.918806 0.496900
vt 1.000000 0.611726
vt 0.492368 0.623067
vt 0.492368 0.376933
vt 0.617343 0.376933
vt 0.617343 0.623067
vt 0.367392 0.623067
vt 0.367392 0.376933
vt 0.918999 0.620735
vt 0.621874 0.620735
vt 0.623110 0.391082
vt 0.918588 0.391082
vt 1.000000 0.505909
vt 0.000000 0.000000
vt 0.000000 0.000000
vt 0.000000 0.000000
vt 0.000000 0.000000
vt 0.000000 0.000000
vt 0.000000 0.000000
vt 0.000000 0.000000
vt 0.000000 0.000000
vn -0.0000 0.0000 -1.0000
vn -0.7071 -0.7071 -0.0000
vn 1.0000 0.0013 0.0000
vn 0.7071 0.7071 -0.0000
vn 0.0012 -1.0000 0.0000
vn 0.0000 0.0000 1.0000
vn 0.0000 1.0000 0.0000
vn -1.0000 0.0000 0.0000
vn -0.7071 0.7071 0.0000
vn 0.0013 -1.0000 0.0000
vn 0.7071 -0.7071 0.0000
vn -1.0000 -0.0012 0.0000
vn 1.0000 0.0000 0.0000
usemtl None
s off
f 3/1/1 11/2/1 9/3/1 13/4/1 6/5/1 1/6/1
f 4/7/2 32/8/2 30/9/2 12/10/2 11/11/2 3/12/2
f 5/13/3 2/14/3 1/15/3 6/16/3
f 5/17/4 6/18/4 13/19/4 14/20/4 29/21/4 31/22/4
f 2/14/5 4/23/5 3/24/5 1/15/5
f 30/25/6 29/26/6 14/27/6 10/28/6 12/29/6
f 10/30/7 9/31/7 11/32/7 12/33/7
f 9/31/8 10/30/8 14/34/8 13/35/8
f 4/36/6 2/37/6 5/38/6 31/39/6 32/40/6
usemtl None_default_brick.png
f 34/41/1 25/42/1 23/43/1 27/44/1 33/45/1
f 18/46/9 26/47/9 25/48/9 34/49/9 36/50/9 17/51/9
f 19/52/10 16/53/10 15/54/10 20/55/10
f 19/56/11 20/57/11 35/58/11 33/59/11 27/60/11 28/61/11
f 16/53/12 18/62/12 17/63/12 15/54/12
f 18/64/6 16/65/6 19/66/6 28/67/6 24/68/6 26/69/6
f 24/70/13 23/71/13 25/72/13 26/73/13
f 23/71/7 24/70/7 28/74/7 27/75/7
f 17/76/1 36/77/1 35/78/1 20/79/1 15/80/1
usemtl None_NONE
f 8/81/6 7/82/6 9/83/6 10/84/6
f 22/85/6 21/86/6 23/87/6 24/88/6
